<svg width="16" height="16" viewBox="0 0 16 16" fill="none" xmlns="http://www.w3.org/2000/svg">
<path d="M7.40078 3.19999V0.799988H8.60078V3.19999H7.40078ZM11.8174 5.06665L10.9174 4.19999L12.6508 2.49999L13.5174 3.33332L11.8174 5.06665ZM12.8008 8.59999V7.39999H15.2008V8.59999H12.8008ZM7.40078 15.2V12.8H8.60078V15.2H7.40078ZM4.18411 5.03332L2.45078 3.33332L3.35078 2.49999L5.03411 4.18332L4.18411 5.03332ZM12.6674 13.55L10.9841 11.8L11.8174 10.9667L13.5508 12.6333L12.6674 13.55ZM0.800781 8.59999V7.39999H3.20078V8.59999H0.800781ZM3.33411 13.55L2.48411 12.6667L4.18411 11L4.60078 11.4L5.00078 11.8167L3.33411 13.55ZM8.00078 12C6.88967 12 5.94523 11.6111 5.16745 10.8333C4.38967 10.0555 4.00078 9.1111 4.00078 7.99999C4.00078 6.88888 4.38967 5.94443 5.16745 5.16665C5.94523 4.38888 6.88967 3.99999 8.00078 3.99999C9.11189 3.99999 10.0563 4.38888 10.8341 5.16665C11.6119 5.94443 12.0008 6.88888 12.0008 7.99999C12.0008 9.1111 11.6119 10.0555 10.8341 10.8333C10.0563 11.6111 9.11189 12 8.00078 12ZM8.00078 10.8C8.77856 10.8 9.43967 10.5278 9.98411 9.98332C10.5286 9.43888 10.8008 8.77777 10.8008 7.99999C10.8008 7.22221 10.5286 6.5611 9.98411 6.01665C9.43967 5.47221 8.77856 5.19999 8.00078 5.19999C7.223 5.19999 6.56189 5.47221 6.01745 6.01665C5.473 6.5611 5.20078 7.22221 5.20078 7.99999C5.20078 8.77777 5.473 9.43888 6.01745 9.98332C6.56189 10.5278 7.223 10.8 8.00078 10.8Z" fill="white"/>
</svg>
