<svg width="16" height="16" viewBox="0 0 10 14" fill="none" xmlns="http://www.w3.org/2000/svg">
<path d="M6.59922 13.4C5.72455 13.4 4.89789 13.232 4.11922 12.896C3.34055 12.56 2.66055 12.1013 2.07922 11.52C1.49789 10.9386 1.03922 10.2586 0.703219 9.47998C0.367219 8.70131 0.199219 7.87464 0.199219 6.99998C0.199219 6.11464 0.367219 5.28531 0.703219 4.51198C1.03922 3.73864 1.49789 3.06131 2.07922 2.47998C2.66055 1.89864 3.34055 1.43998 4.11922 1.10398C4.89789 0.767975 5.72455 0.599976 6.59922 0.599976C7.16844 0.599976 7.72189 0.66942 8.25955 0.808309C8.79711 0.947198 9.31033 1.16292 9.79922 1.45548C8.82144 2.05181 8.04366 2.83886 7.46589 3.81664C6.88811 4.79442 6.59922 5.85553 6.59922 6.99998C6.59922 8.14442 6.88811 9.20553 7.46589 10.1833C8.04366 11.1611 8.82144 11.9481 9.79922 12.5445C9.31033 12.837 8.79711 13.0528 8.25955 13.1916C7.72189 13.3305 7.16844 13.4 6.59922 13.4ZM6.59922 12.2C6.73255 12.2 6.86589 12.1944 6.99922 12.1833C7.13255 12.1722 7.26589 12.1555 7.39922 12.1333C6.76589 11.4111 6.27422 10.6131 5.92422 9.73948C5.57422 8.86581 5.39922 7.95192 5.39922 6.99781C5.39922 6.0437 5.57422 5.1277 5.92422 4.24981C6.27422 3.37192 6.76589 2.57753 7.39922 1.86664C7.26589 1.84442 7.13255 1.82775 6.99922 1.81664C6.86589 1.80553 6.73255 1.79998 6.59922 1.79998C5.15844 1.79998 3.93155 2.30681 2.91855 3.32048C1.90566 4.33414 1.39922 5.56192 1.39922 7.00381C1.39922 8.4457 1.90566 9.6722 2.91855 10.6833C3.93155 11.6944 5.15844 12.2 6.59922 12.2Z" fill="white"/>
</svg>
